<mxfile host="app.diagrams.net" modified="2021-09-20T08:39:48.979Z" agent="5.0 (Windows NT 10.0; Win64; x64) AppleWebKit/537.36 (KHTML, like Gecko) Chrome/93.0.4577.82 Safari/537.36" etag="D-XSphtnzr_OW73x8iHj" version="14.7.2" type="github">
  <diagram id="JFGGiPSsx8Y47dSBcQjj" name="Page-1">
    <mxGraphModel dx="1038" dy="547" grid="1" gridSize="10" guides="1" tooltips="1" connect="1" arrows="1" fold="1" page="1" pageScale="1" pageWidth="850" pageHeight="1100" math="0" shadow="0">
      <root>
        <mxCell id="0" />
        <mxCell id="1" parent="0" />
        <mxCell id="5YqRh7Nb_uypnh0w5WMv-1" value="&lt;b&gt;&lt;font style=&quot;font-size: 14px&quot;&gt;A&lt;/font&gt;&lt;/b&gt;" style="ellipse;whiteSpace=wrap;html=1;fillColor=#97D077;" parent="1" vertex="1">
          <mxGeometry x="190" y="100" width="30" height="30" as="geometry" />
        </mxCell>
        <mxCell id="5YqRh7Nb_uypnh0w5WMv-2" value="&lt;b&gt;&lt;font style=&quot;font-size: 14px&quot;&gt;D&lt;/font&gt;&lt;/b&gt;" style="ellipse;whiteSpace=wrap;html=1;fillColor=#97D077;" parent="1" vertex="1">
          <mxGeometry x="190" y="190" width="30" height="30" as="geometry" />
        </mxCell>
        <mxCell id="5YqRh7Nb_uypnh0w5WMv-5" value="" style="endArrow=none;html=1;exitX=0.5;exitY=0;exitDx=0;exitDy=0;" parent="1" source="5YqRh7Nb_uypnh0w5WMv-2" target="5YqRh7Nb_uypnh0w5WMv-1" edge="1">
          <mxGeometry width="50" height="50" relative="1" as="geometry">
            <mxPoint x="204.86" y="170" as="sourcePoint" />
            <mxPoint x="204.86" y="130" as="targetPoint" />
            <Array as="points" />
          </mxGeometry>
        </mxCell>
        <mxCell id="5YqRh7Nb_uypnh0w5WMv-9" value="&lt;b&gt;&lt;font style=&quot;font-size: 14px&quot;&gt;B&lt;/font&gt;&lt;/b&gt;" style="ellipse;whiteSpace=wrap;html=1;fillColor=#97D077;" parent="1" vertex="1">
          <mxGeometry x="280" y="100" width="30" height="30" as="geometry" />
        </mxCell>
        <mxCell id="5YqRh7Nb_uypnh0w5WMv-10" value="&lt;b&gt;&lt;font style=&quot;font-size: 14px&quot;&gt;E&lt;/font&gt;&lt;/b&gt;" style="ellipse;whiteSpace=wrap;html=1;fillColor=#97D077;" parent="1" vertex="1">
          <mxGeometry x="280" y="190" width="30" height="30" as="geometry" />
        </mxCell>
        <mxCell id="5YqRh7Nb_uypnh0w5WMv-11" value="" style="endArrow=none;html=1;exitX=0.5;exitY=0;exitDx=0;exitDy=0;" parent="1" source="5YqRh7Nb_uypnh0w5WMv-10" target="5YqRh7Nb_uypnh0w5WMv-9" edge="1">
          <mxGeometry width="50" height="50" relative="1" as="geometry">
            <mxPoint x="294.86" y="170" as="sourcePoint" />
            <mxPoint x="294.8600000000001" y="130" as="targetPoint" />
            <Array as="points" />
          </mxGeometry>
        </mxCell>
        <mxCell id="5YqRh7Nb_uypnh0w5WMv-12" value="" style="endArrow=none;html=1;entryX=0;entryY=0.5;entryDx=0;entryDy=0;exitX=1;exitY=0.5;exitDx=0;exitDy=0;" parent="1" source="5YqRh7Nb_uypnh0w5WMv-2" target="5YqRh7Nb_uypnh0w5WMv-10" edge="1">
          <mxGeometry width="50" height="50" relative="1" as="geometry">
            <mxPoint x="220" y="210" as="sourcePoint" />
            <mxPoint x="270" y="160" as="targetPoint" />
          </mxGeometry>
        </mxCell>
        <mxCell id="5YqRh7Nb_uypnh0w5WMv-16" value="&lt;b&gt;&lt;font style=&quot;font-size: 14px&quot;&gt;H&lt;/font&gt;&lt;/b&gt;" style="ellipse;whiteSpace=wrap;html=1;fillColor=#97D077;" parent="1" vertex="1">
          <mxGeometry x="190" y="280" width="30" height="30" as="geometry" />
        </mxCell>
        <mxCell id="5YqRh7Nb_uypnh0w5WMv-17" value="" style="endArrow=none;html=1;exitX=0.5;exitY=0;exitDx=0;exitDy=0;" parent="1" source="5YqRh7Nb_uypnh0w5WMv-16" target="5YqRh7Nb_uypnh0w5WMv-2" edge="1">
          <mxGeometry width="50" height="50" relative="1" as="geometry">
            <mxPoint x="204.86" y="260" as="sourcePoint" />
            <mxPoint x="205" y="220" as="targetPoint" />
            <Array as="points" />
          </mxGeometry>
        </mxCell>
        <mxCell id="5YqRh7Nb_uypnh0w5WMv-19" value="&lt;b&gt;&lt;font style=&quot;font-size: 14px&quot;&gt;I&lt;/font&gt;&lt;/b&gt;" style="ellipse;whiteSpace=wrap;html=1;fillColor=#97D077;" parent="1" vertex="1">
          <mxGeometry x="280" y="280" width="30" height="30" as="geometry" />
        </mxCell>
        <mxCell id="5YqRh7Nb_uypnh0w5WMv-20" value="" style="endArrow=none;html=1;exitX=0.5;exitY=0;exitDx=0;exitDy=0;" parent="1" source="5YqRh7Nb_uypnh0w5WMv-19" target="5YqRh7Nb_uypnh0w5WMv-10" edge="1">
          <mxGeometry width="50" height="50" relative="1" as="geometry">
            <mxPoint x="294.86" y="260" as="sourcePoint" />
            <mxPoint x="295" y="220" as="targetPoint" />
            <Array as="points" />
          </mxGeometry>
        </mxCell>
        <mxCell id="5YqRh7Nb_uypnh0w5WMv-21" value="&lt;span style=&quot;font-size: 14px&quot;&gt;&lt;b&gt;K&lt;/b&gt;&lt;/span&gt;" style="ellipse;whiteSpace=wrap;html=1;fillColor=#97D077;" parent="1" vertex="1">
          <mxGeometry x="280" y="370" width="30" height="30" as="geometry" />
        </mxCell>
        <mxCell id="5YqRh7Nb_uypnh0w5WMv-22" value="" style="endArrow=none;html=1;exitX=0.5;exitY=0;exitDx=0;exitDy=0;" parent="1" source="5YqRh7Nb_uypnh0w5WMv-21" target="5YqRh7Nb_uypnh0w5WMv-19" edge="1">
          <mxGeometry width="50" height="50" relative="1" as="geometry">
            <mxPoint x="294.86" y="350" as="sourcePoint" />
            <mxPoint x="295" y="310" as="targetPoint" />
            <Array as="points" />
          </mxGeometry>
        </mxCell>
        <mxCell id="5YqRh7Nb_uypnh0w5WMv-23" value="" style="endArrow=none;html=1;" parent="1" source="5YqRh7Nb_uypnh0w5WMv-21" target="5YqRh7Nb_uypnh0w5WMv-16" edge="1">
          <mxGeometry width="50" height="50" relative="1" as="geometry">
            <mxPoint x="230" y="380" as="sourcePoint" />
            <mxPoint x="280" y="330" as="targetPoint" />
          </mxGeometry>
        </mxCell>
        <mxCell id="5YqRh7Nb_uypnh0w5WMv-24" value="&lt;b&gt;&lt;font style=&quot;font-size: 14px&quot;&gt;M&lt;/font&gt;&lt;/b&gt;" style="ellipse;whiteSpace=wrap;html=1;" parent="1" vertex="1">
          <mxGeometry x="190" y="370" width="30" height="30" as="geometry" />
        </mxCell>
        <mxCell id="5YqRh7Nb_uypnh0w5WMv-25" value="" style="endArrow=none;html=1;" parent="1" source="5YqRh7Nb_uypnh0w5WMv-24" target="5YqRh7Nb_uypnh0w5WMv-21" edge="1">
          <mxGeometry width="50" height="50" relative="1" as="geometry">
            <mxPoint x="320" y="360" as="sourcePoint" />
            <mxPoint x="370" y="310" as="targetPoint" />
          </mxGeometry>
        </mxCell>
        <mxCell id="5YqRh7Nb_uypnh0w5WMv-26" value="&lt;b&gt;&lt;font style=&quot;font-size: 14px&quot;&gt;J&lt;/font&gt;&lt;/b&gt;" style="ellipse;whiteSpace=wrap;html=1;" parent="1" vertex="1">
          <mxGeometry x="370" y="280" width="30" height="30" as="geometry" />
        </mxCell>
        <mxCell id="5YqRh7Nb_uypnh0w5WMv-27" value="" style="endArrow=none;html=1;" parent="1" source="5YqRh7Nb_uypnh0w5WMv-19" target="5YqRh7Nb_uypnh0w5WMv-26" edge="1">
          <mxGeometry width="50" height="50" relative="1" as="geometry">
            <mxPoint x="380" y="310" as="sourcePoint" />
            <mxPoint x="430" y="260" as="targetPoint" />
          </mxGeometry>
        </mxCell>
        <mxCell id="5YqRh7Nb_uypnh0w5WMv-28" value="&lt;b&gt;&lt;font style=&quot;font-size: 14px&quot;&gt;F&lt;/font&gt;&lt;/b&gt;" style="ellipse;whiteSpace=wrap;html=1;" parent="1" vertex="1">
          <mxGeometry x="370" y="190" width="30" height="30" as="geometry" />
        </mxCell>
        <mxCell id="5YqRh7Nb_uypnh0w5WMv-29" value="" style="endArrow=none;html=1;" parent="1" target="5YqRh7Nb_uypnh0w5WMv-30" edge="1">
          <mxGeometry width="50" height="50" relative="1" as="geometry">
            <mxPoint x="310" y="205" as="sourcePoint" />
            <mxPoint x="430" y="170" as="targetPoint" />
          </mxGeometry>
        </mxCell>
        <mxCell id="5YqRh7Nb_uypnh0w5WMv-30" value="&lt;b&gt;&lt;font style=&quot;font-size: 14px&quot;&gt;C&lt;/font&gt;&lt;/b&gt;" style="ellipse;whiteSpace=wrap;html=1;fillColor=#97D077;" parent="1" vertex="1">
          <mxGeometry x="370" y="100" width="30" height="30" as="geometry" />
        </mxCell>
        <mxCell id="5YqRh7Nb_uypnh0w5WMv-31" value="" style="endArrow=none;html=1;" parent="1" source="5YqRh7Nb_uypnh0w5WMv-28" target="5YqRh7Nb_uypnh0w5WMv-30" edge="1">
          <mxGeometry width="50" height="50" relative="1" as="geometry">
            <mxPoint x="320" y="215" as="sourcePoint" />
            <mxPoint x="385.4147045819557" y="136.5378555957942" as="targetPoint" />
          </mxGeometry>
        </mxCell>
        <mxCell id="5YqRh7Nb_uypnh0w5WMv-32" value="" style="endArrow=none;html=1;" parent="1" source="5YqRh7Nb_uypnh0w5WMv-30" target="5YqRh7Nb_uypnh0w5WMv-9" edge="1">
          <mxGeometry width="50" height="50" relative="1" as="geometry">
            <mxPoint x="360" y="130" as="sourcePoint" />
            <mxPoint x="320" y="140" as="targetPoint" />
          </mxGeometry>
        </mxCell>
        <mxCell id="5YqRh7Nb_uypnh0w5WMv-33" value="&lt;b&gt;&lt;font style=&quot;font-size: 14px&quot;&gt;G&lt;/font&gt;&lt;/b&gt;" style="ellipse;whiteSpace=wrap;html=1;" parent="1" vertex="1">
          <mxGeometry x="460" y="190" width="30" height="30" as="geometry" />
        </mxCell>
        <mxCell id="5YqRh7Nb_uypnh0w5WMv-34" value="" style="endArrow=none;html=1;" parent="1" source="5YqRh7Nb_uypnh0w5WMv-33" target="5YqRh7Nb_uypnh0w5WMv-28" edge="1">
          <mxGeometry width="50" height="50" relative="1" as="geometry">
            <mxPoint x="450" y="220" as="sourcePoint" />
            <mxPoint x="400" y="205" as="targetPoint" />
          </mxGeometry>
        </mxCell>
        <mxCell id="5YqRh7Nb_uypnh0w5WMv-35" value="" style="endArrow=none;html=1;" parent="1" source="5YqRh7Nb_uypnh0w5WMv-26" target="5YqRh7Nb_uypnh0w5WMv-28" edge="1">
          <mxGeometry width="50" height="50" relative="1" as="geometry">
            <mxPoint x="470" y="215" as="sourcePoint" />
            <mxPoint x="410" y="215" as="targetPoint" />
          </mxGeometry>
        </mxCell>
        <mxCell id="5YqRh7Nb_uypnh0w5WMv-36" value="" style="endArrow=none;html=1;" parent="1" source="5YqRh7Nb_uypnh0w5WMv-26" target="5YqRh7Nb_uypnh0w5WMv-33" edge="1">
          <mxGeometry width="50" height="50" relative="1" as="geometry">
            <mxPoint x="395" y="290" as="sourcePoint" />
            <mxPoint x="395" y="230" as="targetPoint" />
          </mxGeometry>
        </mxCell>
        <mxCell id="5YqRh7Nb_uypnh0w5WMv-37" value="&lt;b&gt;&lt;font style=&quot;font-size: 14px&quot;&gt;L&lt;/font&gt;&lt;/b&gt;" style="ellipse;whiteSpace=wrap;html=1;" parent="1" vertex="1">
          <mxGeometry x="460" y="100" width="30" height="30" as="geometry" />
        </mxCell>
        <mxCell id="5YqRh7Nb_uypnh0w5WMv-38" value="" style="endArrow=none;html=1;" parent="1" target="5YqRh7Nb_uypnh0w5WMv-37" edge="1">
          <mxGeometry width="50" height="50" relative="1" as="geometry">
            <mxPoint x="475" y="190" as="sourcePoint" />
            <mxPoint x="475.4147045819557" y="136.5378555957942" as="targetPoint" />
          </mxGeometry>
        </mxCell>
        <mxCell id="Afw35j-rkq3azpGYtkyB-5" value="&lt;b&gt;&lt;font style=&quot;font-size: 14px&quot;&gt;0&lt;/font&gt;&lt;/b&gt;" style="text;html=1;strokeColor=none;fillColor=none;align=center;verticalAlign=middle;whiteSpace=wrap;rounded=0;" vertex="1" parent="1">
          <mxGeometry x="170" y="80" width="30" height="30" as="geometry" />
        </mxCell>
        <mxCell id="Afw35j-rkq3azpGYtkyB-14" value="&lt;b&gt;&lt;font style=&quot;font-size: 14px&quot;&gt;1&lt;/font&gt;&lt;/b&gt;" style="text;html=1;strokeColor=none;fillColor=none;align=center;verticalAlign=middle;whiteSpace=wrap;rounded=0;" vertex="1" parent="1">
          <mxGeometry x="170" y="170" width="30" height="30" as="geometry" />
        </mxCell>
        <mxCell id="Afw35j-rkq3azpGYtkyB-15" value="&lt;b&gt;&lt;font style=&quot;font-size: 14px&quot;&gt;2&lt;/font&gt;&lt;/b&gt;" style="text;html=1;strokeColor=none;fillColor=none;align=center;verticalAlign=middle;whiteSpace=wrap;rounded=0;" vertex="1" parent="1">
          <mxGeometry x="260" y="170" width="30" height="30" as="geometry" />
        </mxCell>
        <mxCell id="Afw35j-rkq3azpGYtkyB-16" value="&lt;b&gt;&lt;font style=&quot;font-size: 14px&quot;&gt;3&lt;/font&gt;&lt;/b&gt;" style="text;html=1;strokeColor=none;fillColor=none;align=center;verticalAlign=middle;whiteSpace=wrap;rounded=0;" vertex="1" parent="1">
          <mxGeometry x="260" y="80" width="30" height="30" as="geometry" />
        </mxCell>
        <mxCell id="Afw35j-rkq3azpGYtkyB-17" value="&lt;b&gt;&lt;font style=&quot;font-size: 14px&quot;&gt;3&lt;/font&gt;&lt;/b&gt;" style="text;html=1;strokeColor=none;fillColor=none;align=center;verticalAlign=middle;whiteSpace=wrap;rounded=0;" vertex="1" parent="1">
          <mxGeometry x="350" y="80" width="30" height="30" as="geometry" />
        </mxCell>
        <mxCell id="Afw35j-rkq3azpGYtkyB-18" value="&lt;b&gt;&lt;font style=&quot;font-size: 14px&quot;&gt;3&lt;/font&gt;&lt;/b&gt;" style="text;html=1;strokeColor=none;fillColor=none;align=center;verticalAlign=middle;whiteSpace=wrap;rounded=0;" vertex="1" parent="1">
          <mxGeometry x="260" y="260" width="30" height="30" as="geometry" />
        </mxCell>
        <mxCell id="Afw35j-rkq3azpGYtkyB-19" value="&lt;b&gt;&lt;font style=&quot;font-size: 14px&quot;&gt;2&lt;/font&gt;&lt;/b&gt;" style="text;html=1;strokeColor=none;fillColor=none;align=center;verticalAlign=middle;whiteSpace=wrap;rounded=0;" vertex="1" parent="1">
          <mxGeometry x="170" y="260" width="30" height="30" as="geometry" />
        </mxCell>
        <mxCell id="Afw35j-rkq3azpGYtkyB-20" value="&lt;b&gt;&lt;font style=&quot;font-size: 14px&quot;&gt;3&lt;/font&gt;&lt;/b&gt;" style="text;html=1;strokeColor=none;fillColor=none;align=center;verticalAlign=middle;whiteSpace=wrap;rounded=0;" vertex="1" parent="1">
          <mxGeometry x="300" y="350" width="30" height="30" as="geometry" />
        </mxCell>
      </root>
    </mxGraphModel>
  </diagram>
</mxfile>
